<?xml version="1.0" encoding="UTF-8"?><!DOCTYPE svg PUBLIC "-//W3C//DTD SVG 1.1//EN" "http://www.w3.org/Graphics/SVG/1.1/DTD/svg11.dtd"><svg xmlns="http://www.w3.org/2000/svg" xmlns:xlink="http://www.w3.org/1999/xlink"><symbol id="icon-facebook" viewBox="0 0 6 12">
<path d="M4 6.9H5.42857L6 4.5H4V3.3C4 2.682 4 2.1 5.14286 2.1H6V0.0840001C5.81371 0.0582001 5.11029 0 4.36743 0C2.816 0 1.71429 0.9942 1.71429 2.82V4.5H0V6.9H1.71429V12H4V6.9Z" fill="#122659"/>
</symbol><symbol id="icon-instagram" viewBox="0 0 12 12">
<path d="M6 0C7.6302 0 7.8336 0.00599997 8.4732 0.036C9.1122 0.066 9.5472 0.1662 9.93 0.315C10.326 0.4674 10.6596 0.6738 10.9932 1.0068C11.2983 1.30674 11.5344 1.66955 11.685 2.07C11.8332 2.4522 11.934 2.8878 11.964 3.5268C11.9922 4.1664 12 4.3698 12 6C12 7.6302 11.994 7.8336 11.964 8.4732C11.934 9.1122 11.8332 9.5472 11.685 9.93C11.5348 10.3307 11.2987 10.6936 10.9932 10.9932C10.6932 11.2982 10.3304 11.5343 9.93 11.685C9.5478 11.8332 9.1122 11.934 8.4732 11.964C7.8336 11.9922 7.6302 12 6 12C4.3698 12 4.1664 11.994 3.5268 11.964C2.8878 11.934 2.4528 11.8332 2.07 11.685C1.6694 11.5347 1.30652 11.2986 1.0068 10.9932C0.701644 10.6933 0.465559 10.3305 0.315 9.93C0.1662 9.5478 0.066 9.1122 0.036 8.4732C0.00779997 7.8336 0 7.6302 0 6C0 4.3698 0.00599997 4.1664 0.036 3.5268C0.066 2.8872 0.1662 2.4528 0.315 2.07C0.465142 1.66931 0.701282 1.30639 1.0068 1.0068C1.3066 0.701539 1.66946 0.465438 2.07 0.315C2.4528 0.1662 2.8872 0.066 3.5268 0.036C4.1664 0.00779997 4.3698 0 6 0ZM6 3C5.20435 3 4.44129 3.31607 3.87868 3.87868C3.31607 4.44129 3 5.20435 3 6C3 6.79565 3.31607 7.55871 3.87868 8.12132C4.44129 8.68393 5.20435 9 6 9C6.79565 9 7.55871 8.68393 8.12132 8.12132C8.68393 7.55871 9 6.79565 9 6C9 5.20435 8.68393 4.44129 8.12132 3.87868C7.55871 3.31607 6.79565 3 6 3ZM9.9 2.85C9.9 2.65109 9.82098 2.46032 9.68033 2.31967C9.53968 2.17902 9.34891 2.1 9.15 2.1C8.95109 2.1 8.76032 2.17902 8.61967 2.31967C8.47902 2.46032 8.4 2.65109 8.4 2.85C8.4 3.04891 8.47902 3.23968 8.61967 3.38033C8.76032 3.52098 8.95109 3.6 9.15 3.6C9.34891 3.6 9.53968 3.52098 9.68033 3.38033C9.82098 3.23968 9.9 3.04891 9.9 2.85ZM6 4.2C6.47739 4.2 6.93523 4.38964 7.27279 4.72721C7.61036 5.06477 7.8 5.52261 7.8 6C7.8 6.47739 7.61036 6.93523 7.27279 7.27279C6.93523 7.61036 6.47739 7.8 6 7.8C5.52261 7.8 5.06477 7.61036 4.72721 7.27279C4.38964 6.93523 4.2 6.47739 4.2 6C4.2 5.52261 4.38964 5.06477 4.72721 4.72721C5.06477 4.38964 5.52261 4.2 6 4.2Z" fill="#122659"/>
</symbol><symbol id="icon-menu-close" viewBox="0 0 20 20">
<path d="M1 1L10 10M19 19L10 10M10 10L19 1L1 19" stroke="#122947" stroke-width="2"/>
</symbol><symbol id="icon-menu-open" viewBox="0 0 24 14">
<path d="M0 1H24M0 7H24M0 13H24" stroke="#122659" stroke-width="2"/>
</symbol><symbol id="icon-phone" viewBox="0 0 15 15">
<path d="M11.404 9.92279C10.9139 9.43898 10.3021 9.43898 9.8152 9.92279C9.44375 10.2911 9.0723 10.6594 8.7071 11.034C8.60721 11.137 8.52294 11.1588 8.4012 11.0902C8.16085 10.9591 7.9049 10.853 7.67391 10.7094C6.59703 10.032 5.69494 9.16118 4.89587 8.18108C4.49945 7.69414 4.14673 7.17288 3.90014 6.58606C3.8502 6.46745 3.85956 6.38942 3.95632 6.29266C4.32777 5.9337 4.68985 5.56538 5.05506 5.19706C5.56385 4.68516 5.56385 4.08586 5.05194 3.57083C4.76165 3.27743 4.47135 2.99026 4.18106 2.69685C3.88141 2.3972 3.58488 2.09443 3.2821 1.7979C2.79204 1.32033 2.18025 1.32033 1.69331 1.80102C1.31874 2.16934 0.959777 2.54703 0.578966 2.9091C0.226247 3.24309 0.0483275 3.65199 0.0108707 4.12956C-0.048436 4.90677 0.14197 5.64029 0.41041 6.35508C0.959777 7.83461 1.79631 9.1487 2.81077 10.3535C4.18106 11.9829 5.81668 13.272 7.7301 14.2022C8.59161 14.6204 9.48433 14.9419 10.4551 14.995C11.1231 15.0325 11.7036 14.8639 12.1687 14.3426C12.4871 13.9868 12.8461 13.6622 13.1832 13.3219C13.6826 12.8163 13.6857 12.2045 13.1894 11.7051C12.5964 11.1089 12.0002 10.5158 11.404 9.92279Z" fill="#122659"/>
<path d="M10.8075 7.43508L11.9593 7.23843C11.7783 6.18029 11.2789 5.22203 10.5204 4.46042C9.71817 3.65823 8.70371 3.15257 7.58625 2.9965L7.42394 4.15453C8.28857 4.27626 9.07516 4.66643 9.69632 5.28758C10.2831 5.8744 10.6671 6.61728 10.8075 7.43508Z" fill="#122659"/>
<path d="M12.609 2.42842C11.2793 1.09872 9.59684 0.259073 7.73961 0L7.57729 1.15802C9.1817 1.38276 10.6363 2.11004 11.785 3.25558C12.8743 4.34493 13.5891 5.72145 13.8482 7.23531L15 7.03866C14.6972 5.28446 13.8701 3.69257 12.609 2.42842Z" fill="#122659"/>
</symbol><symbol id="icon-slider-button-next" viewBox="0 0 17 10">
<path d="M1 5H16M16 5L12 9M16 5L12 1" stroke="#122659" stroke-width="2" stroke-linecap="round" stroke-linejoin="round"/>
</symbol><symbol id="icon-slider-button" viewBox="0 0 17 10">
<path d="M16 5L1 5M1 5L5 1M1 5L5 9" stroke="#122659" stroke-width="2" stroke-linecap="round" stroke-linejoin="round"/>
</symbol><symbol id="icon-vkontakte" viewBox="0 0 14 8">
<path fill-rule="evenodd" clip-rule="evenodd" d="M6.84965 7.96651H7.68648C7.68648 7.96651 7.93926 7.93871 8.06831 7.79936C8.1871 7.67143 8.1833 7.43117 8.1833 7.43117C8.1833 7.43117 8.16695 6.30644 8.6881 6.14082C9.20183 5.97767 9.86152 7.22785 10.5608 7.70855C11.0895 8.07236 11.4913 7.99259 11.4913 7.99259L13.3609 7.96651C13.3609 7.96651 14.339 7.90616 13.8752 7.1359C13.8372 7.07289 13.6051 6.56611 12.4851 5.52477C11.3128 4.43487 11.4698 4.61116 12.882 2.72588C13.742 1.57774 14.0858 0.876778 13.9784 0.576558C13.876 0.290616 13.2434 0.366194 13.2434 0.366194L11.1383 0.37933C11.1383 0.37933 10.9823 0.358008 10.8666 0.427304C10.7535 0.495268 10.6807 0.65366 10.6807 0.65366C10.6807 0.65366 10.3475 1.54214 9.90315 2.29773C8.96577 3.89212 8.59098 3.97626 8.43779 3.87727C8.08143 3.64653 8.17037 2.95034 8.17037 2.45574C8.17037 0.910665 8.40434 0.266439 7.7148 0.0996707C7.48597 0.0442718 7.31758 0.00771992 6.73238 0.00181831C5.98127 -0.00598703 5.34552 0.00410255 4.98554 0.18077C4.74607 0.298231 4.56133 0.559995 4.67385 0.575035C4.81297 0.593692 5.12809 0.660132 5.29515 0.88801C5.51087 1.18195 5.50327 1.84217 5.50327 1.84217C5.50327 1.84217 5.62719 3.661 5.21381 3.88698C4.93005 4.04194 4.5408 3.72554 3.70511 2.27908C3.27691 1.53814 2.95362 0.719148 2.95362 0.719148C2.95362 0.719148 2.89128 0.566087 2.78009 0.484226C2.64515 0.385041 2.45661 0.35344 2.45661 0.35344L0.456232 0.366575C0.456232 0.366575 0.155938 0.374952 0.0457033 0.505739C-0.0523675 0.622058 0.0379107 0.862691 0.0379107 0.862691C0.0379107 0.862691 1.604 4.53273 3.37726 6.38221C5.00322 8.07788 6.84965 7.96651 6.84965 7.96651Z" fill="#122659"/>
</symbol><symbol id="video-play-button" viewBox="0 0 52 52">
<circle cx="25.7603" cy="26.4153" r="25" fill="#F4C752"/>
<circle cx="25.7603" cy="26.4153" r="21.5" fill="#F4C752"/>
<path d="M33.2603 26.4153L21.2603 17.9153V34.9153L33.2603 26.4153Z" fill="#FDFAF5" stroke="#FDFAF5"/>
</symbol></svg>